<svg xmlns:ns0="http://www.w3.org/2000/svg" xmlns="http://www.w3.org/2000/svg" width="68" height="918" viewBox="0 0 68 918"><ns0:g transform="matrix(1, 0, 0, 1, 0, 0)" filter="url(#Path_418)">
      <ns0:path id="Path_418-2" data-name="Path 418" d="M17.849,32.5A23.155,23.155,0,0,1,11.9,37.057L7.943,40.524l2.08,2.378C15.769,39.237,18.147,35.472,17.849,32.5ZM6.655,40.128a.442.442,0,0,0-.5,0,.436.436,0,0,0-.1.5l.991,1.189L2.3,45.874a1.26,1.26,0,0,0-.1,1.783,1.471,1.471,0,0,0,1.387.4c-.2-.793.4-1.189,1.09-.892l.3-.3c-.2-.793.3-1.288,1.09-.892l.2-.2c-.2-.793.4-1.288,1.09-.892l.2-.2c-.2-.793.4-1.288,1.189-.892l.1-.1.991,1.189a.442.442,0,0,0,.5,0,.436.436,0,0,0,.1-.5Z" transform="translate(7.13 10.5)" fill="url(#linear-gradient)" />
    </ns0:g>
    </svg>