<svg xmlns:ns0="http://www.w3.org/2000/svg" xmlns="http://www.w3.org/2000/svg" width="68" height="918" viewBox="0 0 68 918"><ns0:g transform="matrix(1, 0, 0, 1, 0, 0)" filter="url(#Path_462)">
      <ns0:path id="Path_462-2" data-name="Path 462" d="M17.2,272.8c-.5-.5-.8-.2-1.3-.8-.5-.5-.2-.8-.8-1.3-.5-.5-.8-.2-1.3-.8l-.7,2.7a7,7,0,0,1,2.1,2.1L18,274C17.5,273.5,17.8,273.3,17.2,272.8ZM4.7,281.3,2,282c.5.5.2.8.8,1.3.5.5.8.2,1.3.8.5.5.2.8.8,1.3.5.5.8.2,1.3.8l.7-2.7a7.649,7.649,0,0,1-2.2-2.2Zm2.9-7.7-.1-.1a5.258,5.258,0,0,0-2.7,4.6,5.164,5.164,0,0,0,5.2,5.2,7.719,7.719,0,0,0,1.5-.2,6.983,6.983,0,0,1-2-4.9,6.585,6.585,0,0,0-1.9-4.6Zm2.4-.8a7.716,7.716,0,0,0-1.5.2,6.983,6.983,0,0,1,2,4.9,6.536,6.536,0,0,0,1.9,4.5l.1.1a5.258,5.258,0,0,0,2.7-4.6,5.143,5.143,0,0,0-5.2-5.1Z" transform="translate(41 11.1)" fill="url(#linear-gradient-2)" />
    </ns0:g>
    </svg>