<svg xmlns:ns0="http://www.w3.org/2000/svg" xmlns="http://www.w3.org/2000/svg" width="68" height="918" viewBox="0 0 68 918"><ns0:g transform="matrix(1, 0, 0, 1, 0, 0)" filter="url(#Path_1108)">
      <ns0:path id="Path_1108-2" data-name="Path 1108" d="M7.495,14.305A5.951,5.951,0,0,0,0,10.215c1.718,1.022,2.382,6.135,7.495,6.135S13.313,11.238,15,10.215A6.135,6.135,0,0,0,7.495,14.305ZM2.873,8.17a2.045,2.045,0,0,0,2.72.736,2.045,2.045,0,0,0,4,0A2.045,2.045,0,0,0,11.636,5.44a2.045,2.045,0,0,0-2.045-3.4,2.045,2.045,0,0,0-4,0A2.045,2.045,0,0,0,3.548,5.492,2.045,2.045,0,0,0,2.873,8.17ZM7.495,3.743a1.708,1.708,0,1,1-1.7,1.7,1.708,1.708,0,0,1,1.7-1.7Z" transform="translate(9 552.58)" fill="url(#linear-gradient)" />
    </ns0:g>
    </svg>