<svg xmlns:ns0="http://www.w3.org/2000/svg" xmlns="http://www.w3.org/2000/svg" width="68" height="918" viewBox="0 0 68 918"><ns0:g transform="matrix(1, 0, 0, 1, 0, 0)" filter="url(#Path_476)">
      <ns0:path id="Path_476-2" data-name="Path 476" d="M17,112.4a3.069,3.069,0,0,0-.5-1.3q-.45-.75-1.2-1.8a6,6,0,0,1-.7-2,2.979,2.979,0,0,1-.1-1.3,1.014,1.014,0,0,1,.7-.6c.2,0,.5,0,.5-.1s.1-.3,0-.3a.349.349,0,0,0-.1-.2v-1.4a.2.2,0,0,0-.2-.2h-.5l-.1-.3h-.2l-.1.3H9.8l-.1.1H7.5a.1.1,0,0,0-.1-.1H1.9s0-.2-.1-.2-.2.2-.2.2H1.3c-.2,0-.2.4-.2.4a.1.1,0,0,0-.1.1v.9a.1.1,0,0,0,.1.1v.8a1.165,1.165,0,0,0,.2.7,3.73,3.73,0,0,0,1.2.2h.7c.5,0,2,.1,3,.1a.451.451,0,0,1,.3.3v1.1a.758.758,0,0,1-.2.4.367.367,0,0,0,.1.3c.1,0,.2.1.3.1a26.153,26.153,0,0,0,2.8,0c.2,0,.5-.3.7-.3a.749.749,0,0,1,.5.1c.1.3.4.8.4.9a4.331,4.331,0,0,0-.1.5c.1.1.3.1.3.2a4.875,4.875,0,0,1,.3.7c0,.1-.1.4-.1.5.1.1.3.1.3.3.1.2.3.7.4.9v.6c.1.2.2.2.2.2v.3c0,.1.1.2.3.2h2.9c.1,0,.2-.3.3-.3v-.1a1.007,1.007,0,0,1,.3-.1.887.887,0,0,0,.5-.4C17,112.8,17,112.7,17,112.4Zm-7.5-4.2h-2a.467.467,0,0,1-.5-.5c0-.1-.1-.7.1-.9a1.185,1.185,0,0,1,.7-.4c.4,0,1.2.1,1.2.1a.8.8,0,0,1-.4,1.2c-.2.1-.1.4.1.3a3.942,3.942,0,0,0,1.4-1s.4,1-.6,1.2Z" transform="translate(42 11.1)" fill="url(#linear-gradient-2)" />
    </ns0:g>
    </svg>