<svg xmlns:ns0="http://www.w3.org/2000/svg" xmlns="http://www.w3.org/2000/svg" width="68" height="918" viewBox="0 0 68 918"><ns0:g transform="matrix(1, 0, 0, 1, 0, 0)" filter="url(#Path_465)">
      <ns0:path id="Path_465-2" data-name="Path 465" d="M11,723v-2H8v2Zm2.2-3-1.3-2h-2v2Zm1.9,3-1.3-2H12v2ZM14,726h3l-1.3-2H14Zm-4,0h3v-2H10Zm-4,0H9v-2H6Zm-2.8-2L2,726H5v-2Zm1.9-3-1.3,2H7v-2ZM7,718l-1.3,2H9v-2Zm2.5-4-1.8,3h3.7Z" transform="translate(41 11)" fill="url(#linear-gradient-2)" />
    </ns0:g>
    </svg>