<svg xmlns:ns0="http://www.w3.org/2000/svg" xmlns="http://www.w3.org/2000/svg" width="68" height="918" viewBox="0 0 68 918"><ns0:g transform="matrix(1, 0, 0, 1, 0, 0)" filter="url(#Path_453)">
      <ns0:path id="Path_453-2" data-name="Path 453" d="M18,612.3a7.162,7.162,0,0,1-4.6,6.3l.6-1.2a6.034,6.034,0,0,0,3-4.2H15.2c0-.3.1-.6.1-.9Zm-16,0a7.162,7.162,0,0,0,4.6,6.3L6,617.4a6.034,6.034,0,0,1-3-4.2H4.8c0-.3-.1-.6-.1-.9ZM14.7,611c0,6.5-3.4,8.7-3.7,11.3H9.1c-.3-2.6-3.7-4.8-3.7-11.3Zm-4.9,8.7A15,15,0,0,1,8,612.3H6.9a11.564,11.564,0,0,0,2.9,7.4ZM11,623H9c-.1.8-.4,1.7-1.7,1.7v.9h5.3v-.9C11.3,624.7,11.1,623.8,11,623Z" transform="translate(41 11)" fill="url(#linear-gradient-2)" />
    </ns0:g>
    </svg>