<svg xmlns:ns0="http://www.w3.org/2000/svg" xmlns="http://www.w3.org/2000/svg" width="68" height="918" viewBox="0 0 68 918"><ns0:g transform="matrix(1, 0, 0, 1, 0, 0)" filter="url(#Path_471)">
      <ns0:path id="Path_471-2" data-name="Path 471" d="M14,817.7H11.3v-2A2.689,2.689,0,0,0,8.6,813,2.606,2.606,0,0,0,6,815.7v2H3.3L2,829H15.3Zm-7.3-2a2,2,0,0,1,4,0v2h-4ZM6,819v1a.265.265,0,0,0,.3.3.265.265,0,0,0,.3-.3v-1h4v1a.3.3,0,0,0,.6,0v-1h1.5l.3,2.7H4.2l.3-2.7Z" transform="translate(42 11)" fill="url(#linear-gradient-2)" />
    </ns0:g>
    </svg>