<svg xmlns:ns0="http://www.w3.org/2000/svg" xmlns="http://www.w3.org/2000/svg" width="68" height="918" viewBox="0 0 68 918"><ns0:g transform="matrix(1, 0, 0, 1, 0, 0)" filter="url(#Path_1516)">
      <ns0:path id="Path_1516-2" data-name="Path 1516" d="M39.281,167.357l1.557-2.7,0,0a1,1,0,0,0-1.738-1h0l-.007.012-1.551,2.686a1,1,0,0,0,1.738,1m4.666-3.7a1,1,0,0,0-1.37-.367.992.992,0,0,0-.362.357l-.01.018-3.1,5.373a1,1,0,1,0,1.734,1.011l3.116-5.4a1,1,0,0,0-.006-.993m1.188,2.326a1,1,0,0,0-1.37.368l-.006.009-1.546,2.676a1,1,0,1,0,1.734,1.012l1.559-2.7a1,1,0,0,0-.371-1.366m-9.285.705a.808.808,0,0,0-.021-.093.7.7,0,0,0-.029-.094.931.931,0,0,0-.043-.1c-.009-.017-.015-.036-.025-.053l-1.556-2.7c-.008-.013-.018-.027-.027-.04l-.02-.031a.982.982,0,0,0-.244-.243.41.41,0,0,0-.036-.025c-.014-.009-.026-.018-.039-.026s-.035-.016-.053-.025a.928.928,0,0,0-.1-.043.709.709,0,0,0-.094-.029.814.814,0,0,0-.093-.021c-.036-.006-.071-.009-.108-.011-.019,0-.037-.006-.056-.006H30.2c-.037,0-.075,0-.112.007h-.012a1.123,1.123,0,0,0-.17.038l-.04.015a.9.9,0,0,0-.165.074.922.922,0,0,0-.147.106c-.01.009-.021.018-.031.028a.973.973,0,0,0-.118.128l-.006.008a.885.885,0,0,0-.064.1l-1.556,2.7c-.01.017-.016.036-.025.054a1.03,1.03,0,0,0-.043.1c-.011.031-.02.062-.029.093s-.016.062-.021.094a.862.862,0,0,0-.01.106c0,.02-.007.038-.007.059s0,.032,0,.047l0,.043a1,1,0,0,0,.089.333l.017.034c.008.015.014.03.021.044l1.556,2.7c.01.017.024.03.035.047a.915.915,0,0,0,.062.085.67.67,0,0,0,.066.072c.023.023.046.045.071.065a.9.9,0,0,0,.087.063c.017.011.03.024.047.034s.028.014.042.02.027.014.041.02a1,1,0,0,0,.331.089l.042,0c.015,0,.03,0,.046,0h3.112c.011,0,.022,0,.034,0a.86.86,0,0,0,.106-.011.839.839,0,0,0,.092-.016.781.781,0,0,0,.091-.028.643.643,0,0,0,.092-.035.626.626,0,0,0,.086-.046c.027-.016.055-.03.081-.048s.052-.043.078-.064.046-.042.069-.064.04-.048.061-.074a.77.77,0,0,0,.061-.084c.006-.009.015-.017.02-.027l1.556-2.7c.008-.014.013-.029.021-.043l.017-.035a.967.967,0,0,0,.089-.332.306.306,0,0,0,0-.046c0-.015,0-.029,0-.045s0-.037-.006-.056c0-.037-.006-.072-.011-.108m-3.122,1.854H30.777l-.975-1.69.975-1.691h1.952l.976,1.691Zm1.853-8.327a1,1,0,1,0,1.37.368,1,1,0,0,0-1.37-.368m4.114-3.649a1,1,0,1,0-1.371-.368,1.005,1.005,0,0,0,1.371.368m-5.67,2.694a1,1,0,1,0-.367-1.371,1.005,1.005,0,0,0,.367,1.371m5.854-1.371a1,1,0,1,0,1.371-.368,1.005,1.005,0,0,0-1.371.368m-3.8-1.189a1,1,0,1,0-1-1,1,1,0,0,0,1,1m3.111,5.389a1,1,0,1,0-1-1,1,1,0,0,0,1,1m-.686-4.2a1,1,0,1,0-.368,1.371,1.005,1.005,0,0,0,.368-1.371" transform="translate(14.36 364.3)" fill-rule="evenodd" fill="url(#linear-gradient-52)" />
    </ns0:g>
  </svg>