<svg xmlns:ns0="http://www.w3.org/2000/svg" xmlns="http://www.w3.org/2000/svg" width="68" height="918" viewBox="0 0 68 918"><ns0:g transform="matrix(1, 0, 0, 1, 0, 0)" filter="url(#Path_407)">
      <ns0:path id="Path_407-2" data-name="Path 407" d="M17.695,682.7a.265.265,0,0,1,.3.3v.3c0,.5-.6.7-1.1.7l-.7-1.3Zm-1,2.3a5.024,5.024,0,0,1,.6,2.4,7.208,7.208,0,0,1-.7,2.7v1.2a.684.684,0,0,1-.7.7h-1a.684.684,0,0,1-.7-.7v-.7H5.7v.7a.684.684,0,0,1-.7.7H4a.684.684,0,0,1-.7-.7v-1.2a6.764,6.764,0,0,1-.7-2.7,4.749,4.749,0,0,1,.6-2.4c.6-1,1.2-2.3,2-3.5.6-.9.8-1.1,1.5-1.3a15.667,15.667,0,0,1,3.2-.2,28.816,28.816,0,0,1,3.2.2c.7.1,1,.3,1.5,1.3a23.057,23.057,0,0,1,2.1,3.5ZM6,687a.945.945,0,0,0-1-1,1,1,0,1,0,0,2,.945.945,0,0,0,1-1Zm6.7.7a.265.265,0,0,0-.3-.3H7.7a.3.3,0,1,0,0,.6h4.7a.319.319,0,0,0,.3-.3Zm1.9-3.7a14.56,14.56,0,0,0-1.1-2.1.918.918,0,0,0-.6-.4,14.639,14.639,0,0,0-3-.2,28.315,28.315,0,0,0-3,.2c-.2,0-.4.2-.6.4A14.563,14.563,0,0,0,5.2,684a29.453,29.453,0,0,0,4.6.3,32.289,32.289,0,0,0,4.8-.3Zm1.4,3a1,1,0,1,0-1,1,.945.945,0,0,0,1-1ZM3.8,682.7H2.3a.265.265,0,0,0-.3.3v.3c0,.5.6.7,1.1.7Z" transform="translate(7 11.01)" fill="url(#linear-gradient)" />
    </ns0:g>
    </svg>