<svg xmlns:ns0="http://www.w3.org/2000/svg" xmlns="http://www.w3.org/2000/svg" width="68" height="918" viewBox="0 0 68 918"><ns0:g transform="matrix(1, 0, 0, 1, 0, 0)" filter="url(#Path_470)">
      <ns0:path id="Path_470-2" data-name="Path 470" d="M9,137.3a8.33,8.33,0,0,0,3.3,1.2v5.2c0,1.1-.3,1.3-3.3,3.2-3.1-1.9-3.3-2.1-3.3-3.2v-5.2A8.33,8.33,0,0,0,9,137.3Zm6-1.3v7.7c0,3.1-2.1,3.9-6,6.3-3.9-2.4-6-3.2-6-6.3V136c2.3,0,3.8-.1,6-2C11.2,135.9,12.7,136,15,136Zm-1.3,1.3A8.3,8.3,0,0,1,9,135.7a8.064,8.064,0,0,1-4.7,1.6v6.4c0,2,1.1,2.6,4.7,4.7,3.5-2.2,4.7-2.7,4.7-4.7Z" transform="translate(42 11)" fill="url(#linear-gradient-2)" />
    </ns0:g>
    </svg>