<svg xmlns:ns0="http://www.w3.org/2000/svg" xmlns="http://www.w3.org/2000/svg" width="68" height="918" viewBox="0 0 68 918"><ns0:g transform="matrix(1, 0, 0, 1, 0, 0)" filter="url(#Path_413)">
      <ns0:path id="Path_413-2" data-name="Path 413" d="M1,353.1,2.9,355l12.7-12.7-1.9-1.9Zm10.4-9.4,2.4-2.4.9.9-2.4,2.4Zm-2-4.7a2.622,2.622,0,0,1-1.7,1.7,2.622,2.622,0,0,1,1.7,1.7,2.622,2.622,0,0,1,1.7-1.7A2.622,2.622,0,0,1,9.4,339Zm3.1,8.6a3.523,3.523,0,0,1,2.3,2.3,3.523,3.523,0,0,1,2.3-2.3,3.523,3.523,0,0,1-2.3-2.3,3.517,3.517,0,0,1-2.3,2.3ZM7.1,342a1.8,1.8,0,0,1-1.2,1.2,1.8,1.8,0,0,1,1.2,1.2,1.8,1.8,0,0,1,1.2-1.2A1.8,1.8,0,0,1,7.1,342ZM4,340.4a1.981,1.981,0,0,1,1.4,1.4,1.98,1.98,0,0,1,1.4-1.4A1.981,1.981,0,0,1,5.4,339,1.98,1.98,0,0,1,4,340.4Z" transform="translate(7 11)" fill="url(#linear-gradient)" />
    </ns0:g>
    </svg>