<svg xmlns:ns0="http://www.w3.org/2000/svg" xmlns="http://www.w3.org/2000/svg" width="68" height="918" viewBox="0 0 68 918"><ns0:g transform="matrix(1, 0, 0, 1, 0, 0)" filter="url(#Path_468)">
      <ns0:path id="Path_468-2" data-name="Path 468" d="M10,215h2v-3H10Zm-4-3a9.427,9.427,0,0,0,.5,3H9v-3Zm4,6.9a3.4,3.4,0,0,0,1,.1,3.4,3.4,0,0,0,1-.1V216H10ZM6.9,216A5.558,5.558,0,0,0,9,218.4V216Zm6.1,2.4a5.493,5.493,0,0,0,2.1-2.4H13Zm2.5-3.4a9.427,9.427,0,0,0,.5-3H13v3Zm.5-4a9.469,9.469,0,0,0-.8-3H13v3Zm-7-3H6.9a9.469,9.469,0,0,0-.8,3h3v-3Zm3,0H10v3h2Zm-4-2v1h6v-2h1v-1H14v-1H8l-2,3Zm-4,3H3v5H4Zm-2-2.5A1.538,1.538,0,0,1,3.5,205a1.5,1.5,0,1,1,0,3A1.538,1.538,0,0,1,2,206.5Zm-1,0a2.476,2.476,0,1,0,.725-1.775A2.476,2.476,0,0,0,1,206.5Z" transform="translate(42 11)" fill="url(#linear-gradient-2)" />
    </ns0:g>
    </svg>