<svg xmlns:ns0="http://www.w3.org/2000/svg" xmlns="http://www.w3.org/2000/svg" width="68" height="918" viewBox="0 0 68 918"><ns0:g transform="matrix(1, 0, 0, 1, 0, 0)" filter="url(#iconmonstr-tools-14)">
      <ns0:path id="iconmonstr-tools-14-3" data-name="iconmonstr-tools-14" d="M15.513,13.162,7.549,5.2a1.8,1.8,0,0,1-.522-1.41A3.508,3.508,0,0,0,3.526,0a3.562,3.562,0,0,0-1,.144L4.636,2.257A2.4,2.4,0,0,1,2.258,4.635L.145,2.522A3.558,3.558,0,0,0,0,3.528a3.511,3.511,0,0,0,3.789,3.5A1.8,1.8,0,0,1,5.2,7.551l7.964,7.963a1.662,1.662,0,1,0,2.351-2.351ZM14.333,15A.667.667,0,1,1,15,14.333.666.666,0,0,1,14.333,15ZM9.043,4.807l3.551-3.545a2,2,0,0,1,2.823,2.823L11.867,7.631ZM6.69,10.927,3.205,14.384a2.2,2.2,0,0,0-.383.516l-.2.387L1.222,16l-.555-.556.683-1.431.387-.2a2.146,2.146,0,0,0,.527-.372L5.748,9.983Z" transform="translate(9 451)" fill="url(#linear-gradient)" />
    </ns0:g>
    </svg>