<svg xmlns:ns0="http://www.w3.org/2000/svg" xmlns="http://www.w3.org/2000/svg" width="68" height="918" viewBox="0 0 68 918"><ns0:g transform="matrix(1, 0, 0, 1, 0, 0)" filter="url(#Path_400)">
      <ns0:path id="Path_400-2" data-name="Path 400" d="M18,313.6a9.391,9.391,0,0,0-5.1,1.8,16.772,16.772,0,0,0,3.3-8.3,16.666,16.666,0,0,0-5.3,8.4A18.287,18.287,0,0,0,10,304a17.881,17.881,0,0,0-.8,11.6,17.92,17.92,0,0,0-5.4-8.5,16.772,16.772,0,0,0,3.3,8.3A9.391,9.391,0,0,0,2,313.6a9.183,9.183,0,0,0,3.8,3.6,4.269,4.269,0,0,0-1.4,1.3s2.8,0,4-1.9c.2,0,.6,1.7.6,1.8v2.1a.472.472,0,0,0,.5.5h.2a.472.472,0,0,0,.5-.5v-2.1s.3-1.7.6-1.8c1.3,1.9,4.6,1.9,4.6,1.9a4.269,4.269,0,0,0-1.4-1.3,8.984,8.984,0,0,0,4-3.6Z" transform="translate(7 11)" fill="url(#linear-gradient)" />
    </ns0:g>
    </svg>