<svg xmlns:ns0="http://www.w3.org/2000/svg" xmlns="http://www.w3.org/2000/svg" width="68" height="918" viewBox="0 0 68 918"><ns0:g transform="matrix(1, 0, 0, 1, 0, 0)" filter="url(#Path_482)">
      <ns0:path id="Path_482-2" data-name="Path 482" d="M16,72.391V71.2a.263.263,0,0,0-.3-.3H14.314a.263.263,0,0,0-.3.3v.895H6.859v-.6a.263.263,0,0,0-.3-.3h-.3a.263.263,0,0,0-.3.3v.6H4.274v-.3a.263.263,0,0,0-.3-.3h-.5a.263.263,0,0,0-.3.3v.3h-.6v.6h-.6v.3H0v.6H1.988v.3h.6v.6H7.753v1.193H9.145l.3-.3v3.479a.263.263,0,0,0,.3.3h.9a.263.263,0,0,0,.3-.3v-.895a.263.263,0,0,1,.3-.3h.3a.263.263,0,0,0,.3-.3V74.478h2.584l1.69,1.491v1.093a.263.263,0,0,0,.3.3h.3a.263.263,0,0,0,.3-.3v-3.18ZM9.145,75.274H8.051v-.895h.895v.4l-.3.3h.1l.5-.4.1-.3h.2v.6Zm5.765-.8H16v.895Z" transform="translate(42 11.1)" fill="url(#linear-gradient-2)" />
    </ns0:g>
    </svg>