<svg xmlns:ns0="http://www.w3.org/2000/svg" xmlns="http://www.w3.org/2000/svg" width="68" height="918" viewBox="0 0 68 918"><ns0:g transform="matrix(1, 0, 0, 1, 0, 0)" filter="url(#iconmonstr-whats-hot-1-2)">
      <ns0:path id="iconmonstr-whats-hot-1-4" data-name="iconmonstr-whats-hot-1" d="M6.75,0C7.157,4.793,3,6.443,3,10.664,3,13.531,5.046,15.979,9,16a5.742,5.742,0,0,0,6-5.971,8.151,8.151,0,0,0-3.968-6.983,3.454,3.454,0,0,1-1,3.872C10.078,4.694,9.281,1.393,6.75,0ZM9.891,8.667c2.5,2.659.966,6-1.045,6A1.7,1.7,0,0,1,7,12.949C7.013,11.327,8.825,11.325,9.891,8.667Z" transform="translate(42 893)" fill-rule="evenodd" fill="url(#linear-gradient-2)" />
    </ns0:g>
    </svg>