<svg xmlns:ns0="http://www.w3.org/2000/svg" xmlns="http://www.w3.org/2000/svg" width="68" height="918" viewBox="0 0 68 918"><ns0:g transform="matrix(1, 0, 0, 1, 0, 0)" filter="url(#Path_438)">
      <ns0:path id="Path_438-2" data-name="Path 438" d="M5.737,757.486a2.277,2.277,0,0,0-3.24.687,2.454,2.454,0,0,0,1.374,3.043,2.276,2.276,0,0,0,3.24-.687,2.385,2.385,0,0,0-1.374-3.043Zm10.5.687a2.356,2.356,0,0,0-3.24-.687,2.454,2.454,0,0,0-1.374,3.043,2.356,2.356,0,0,0,3.24.687,2.454,2.454,0,0,0,1.374-3.043ZM5.246,754.05a3.948,3.948,0,0,0-1.178,2.062h.295a4.927,4.927,0,0,1,1.178.2,4.5,4.5,0,0,1,.687-1.374,8.849,8.849,0,0,1-.982-.883Zm8.148,0a8.848,8.848,0,0,1-.982.884,8.917,8.917,0,0,1,.687,1.374,4.933,4.933,0,0,1,1.178-.2h.295a3.948,3.948,0,0,0-1.178-2.062Zm-3.043,5.6a3.023,3.023,0,0,1,.295-1.276,4.05,4.05,0,0,1,1.473-1.669,7.949,7.949,0,0,0-.589-1.276,5.822,5.822,0,0,1-2.258.491,5.819,5.819,0,0,1-2.258-.491,7.949,7.949,0,0,0-.589,1.276A3.465,3.465,0,0,1,7.9,758.369a2.913,2.913,0,0,1,0,2.552.981.981,0,0,1-.393.491,6.414,6.414,0,0,0,3.338,0c-.1-.2-.295-.294-.393-.491,0-.392-.1-.785-.1-1.275Zm-5.4-9.915h.1a2.16,2.16,0,0,0-.1.785,4.281,4.281,0,0,0,3.829,4.319V753.17c-.589-.1-1.08-.491-1.08-.982,0-.589.687-.982,1.571-.982s1.571.491,1.571.982-.491.884-1.08.982v1.669a4.352,4.352,0,0,0,3.829-4.319,1.913,1.913,0,0,0-.1-.785h.1a1.865,1.865,0,0,0,1.865-1.865A1.728,1.728,0,0,0,13.689,746a1.871,1.871,0,0,0-1.669,1.08,4.308,4.308,0,0,0-2.651-.883,4.756,4.756,0,0,0-2.651.883A1.814,1.814,0,0,0,5.05,746a1.865,1.865,0,0,0-1.865,1.865,1.784,1.784,0,0,0,1.767,1.865Zm6.086-.589a.687.687,0,1,1-.687.687.672.672,0,0,1,.687-.687Zm-3.338,0a.687.687,0,1,1-.687.687.672.672,0,0,1,.687-.687Z" transform="translate(7.63 11)" fill="url(#linear-gradient)" />
    </ns0:g>
    </svg>