<svg xmlns:ns0="http://www.w3.org/2000/svg" xmlns="http://www.w3.org/2000/svg" width="68" height="918" viewBox="0 0 68 918"><ns0:g transform="matrix(1, 0, 0, 1, 0, 0)" filter="url(#Path_469)">
      <ns0:path id="Path_469-2" data-name="Path 469" d="M12,476H4.1L0,480.7l8,10,8-9.9Zm-2.3,5.3L8,486.6l-1.7-5.2H9.7Zm-3-1.3L8,478.4,9.3,480Zm3.7-.7-1.6-2H11Zm-4.8,0L5,477.4H7.2Zm-1.2.7H2.3l1.5-1.7Zm.5,1.3,1.9,5.6-4.5-5.6Zm6.2,0h2.6L9.3,487Zm.5-1.3.6-1.7,1.5,1.7Z" transform="translate(43 11)" fill="url(#linear-gradient-2)" />
    </ns0:g>
    </svg>